<mxfile host="app.diagrams.net" agent="Mozilla/5.0 (Windows NT 10.0; Win64; x64) AppleWebKit/537.36 (KHTML, like Gecko) Chrome/132.0.0.0 Safari/537.36" version="26.0.14">
  <diagram id="R2lEEEUBdFMjLlhIrx00" name="Page-1">
    <mxGraphModel dx="1458" dy="2240" grid="1" gridSize="10" guides="1" tooltips="1" connect="1" arrows="1" fold="1" page="1" pageScale="1" pageWidth="850" pageHeight="1100" math="0" shadow="0" extFonts="Permanent Marker^https://fonts.googleapis.com/css?family=Permanent+Marker">
      <root>
        <mxCell id="0" />
        <mxCell id="1" parent="0" />
        <mxCell id="8Ir0-n3XTpCSbQ5L_XkL-1" value="User" style="whiteSpace=wrap;html=1;align=center;" parent="1" vertex="1">
          <mxGeometry x="75" y="58.5" width="65" height="31.5" as="geometry" />
        </mxCell>
        <mxCell id="8Ir0-n3XTpCSbQ5L_XkL-2" value="Equipment" style="whiteSpace=wrap;html=1;align=center;" parent="1" vertex="1">
          <mxGeometry x="655" y="66" width="65" height="28" as="geometry" />
        </mxCell>
        <mxCell id="8Ir0-n3XTpCSbQ5L_XkL-14" value="UserID" style="ellipse;whiteSpace=wrap;html=1;align=center;fontStyle=4;" parent="1" vertex="1">
          <mxGeometry x="20" y="18.5" width="50" height="30" as="geometry" />
        </mxCell>
        <mxCell id="8Ir0-n3XTpCSbQ5L_XkL-15" value="Name" style="ellipse;whiteSpace=wrap;html=1;align=center;" parent="1" vertex="1">
          <mxGeometry x="25" y="88.5" width="40" height="30" as="geometry" />
        </mxCell>
        <mxCell id="8Ir0-n3XTpCSbQ5L_XkL-16" value="Email" style="ellipse;whiteSpace=wrap;html=1;align=center;" parent="1" vertex="1">
          <mxGeometry x="50" y="-21.5" width="40" height="30" as="geometry" />
        </mxCell>
        <mxCell id="8Ir0-n3XTpCSbQ5L_XkL-17" value="Password" style="ellipse;whiteSpace=wrap;html=1;align=center;" parent="1" vertex="1">
          <mxGeometry x="80" y="8.5" width="60" height="30" as="geometry" />
        </mxCell>
        <mxCell id="8Ir0-n3XTpCSbQ5L_XkL-18" value="Role" style="ellipse;whiteSpace=wrap;html=1;align=center;" parent="1" vertex="1">
          <mxGeometry x="30" y="58.5" width="30" height="20" as="geometry" />
        </mxCell>
        <mxCell id="8Ir0-n3XTpCSbQ5L_XkL-19" value="" style="endArrow=none;html=1;rounded=0;exitX=1;exitY=0.5;exitDx=0;exitDy=0;entryX=0;entryY=1;entryDx=0;entryDy=0;" parent="1" source="8Ir0-n3XTpCSbQ5L_XkL-15" target="8Ir0-n3XTpCSbQ5L_XkL-1" edge="1">
          <mxGeometry width="50" height="50" relative="1" as="geometry">
            <mxPoint x="170" y="168.5" as="sourcePoint" />
            <mxPoint x="220" y="118.5" as="targetPoint" />
          </mxGeometry>
        </mxCell>
        <mxCell id="8Ir0-n3XTpCSbQ5L_XkL-20" value="" style="endArrow=none;html=1;rounded=0;exitX=1;exitY=0.5;exitDx=0;exitDy=0;entryX=0;entryY=0.25;entryDx=0;entryDy=0;" parent="1" source="8Ir0-n3XTpCSbQ5L_XkL-18" target="8Ir0-n3XTpCSbQ5L_XkL-1" edge="1">
          <mxGeometry width="50" height="50" relative="1" as="geometry">
            <mxPoint x="75" y="113.5" as="sourcePoint" />
            <mxPoint x="85" y="108.5" as="targetPoint" />
          </mxGeometry>
        </mxCell>
        <mxCell id="8Ir0-n3XTpCSbQ5L_XkL-21" value="" style="endArrow=none;html=1;rounded=0;exitX=1;exitY=1;exitDx=0;exitDy=0;entryX=0;entryY=0;entryDx=0;entryDy=0;" parent="1" source="8Ir0-n3XTpCSbQ5L_XkL-14" target="8Ir0-n3XTpCSbQ5L_XkL-1" edge="1">
          <mxGeometry width="50" height="50" relative="1" as="geometry">
            <mxPoint x="70" y="78.5" as="sourcePoint" />
            <mxPoint x="85" y="78.5" as="targetPoint" />
          </mxGeometry>
        </mxCell>
        <mxCell id="8Ir0-n3XTpCSbQ5L_XkL-22" value="" style="endArrow=none;html=1;rounded=0;exitX=0.5;exitY=1;exitDx=0;exitDy=0;entryX=0.25;entryY=0;entryDx=0;entryDy=0;" parent="1" source="8Ir0-n3XTpCSbQ5L_XkL-16" target="8Ir0-n3XTpCSbQ5L_XkL-1" edge="1">
          <mxGeometry width="50" height="50" relative="1" as="geometry">
            <mxPoint x="73" y="54.5" as="sourcePoint" />
            <mxPoint x="85" y="68.5" as="targetPoint" />
          </mxGeometry>
        </mxCell>
        <mxCell id="8Ir0-n3XTpCSbQ5L_XkL-23" value="" style="endArrow=none;html=1;rounded=0;exitX=0.5;exitY=1;exitDx=0;exitDy=0;entryX=0.75;entryY=0;entryDx=0;entryDy=0;" parent="1" source="8Ir0-n3XTpCSbQ5L_XkL-17" target="8Ir0-n3XTpCSbQ5L_XkL-1" edge="1">
          <mxGeometry width="50" height="50" relative="1" as="geometry">
            <mxPoint x="105" y="58.5" as="sourcePoint" />
            <mxPoint x="110" y="68.5" as="targetPoint" />
          </mxGeometry>
        </mxCell>
        <mxCell id="8Ir0-n3XTpCSbQ5L_XkL-25" value="EquipmentID" style="ellipse;whiteSpace=wrap;html=1;align=center;fontStyle=4;" parent="1" vertex="1">
          <mxGeometry x="620" y="-36.25" width="80" height="40" as="geometry" />
        </mxCell>
        <mxCell id="8Ir0-n3XTpCSbQ5L_XkL-26" value="Name" style="ellipse;whiteSpace=wrap;html=1;align=center;" parent="1" vertex="1">
          <mxGeometry x="615" y="105.75" width="40" height="30" as="geometry" />
        </mxCell>
        <mxCell id="8Ir0-n3XTpCSbQ5L_XkL-27" value="Category" style="ellipse;whiteSpace=wrap;html=1;align=center;" parent="1" vertex="1">
          <mxGeometry x="605" y="12.5" width="50" height="30" as="geometry" />
        </mxCell>
        <mxCell id="8Ir0-n3XTpCSbQ5L_XkL-28" value="Specifications" style="ellipse;whiteSpace=wrap;html=1;align=center;" parent="1" vertex="1">
          <mxGeometry x="690" y="-9" width="90" height="38" as="geometry" />
        </mxCell>
        <mxCell id="8Ir0-n3XTpCSbQ5L_XkL-29" value="Status" style="ellipse;whiteSpace=wrap;html=1;align=center;" parent="1" vertex="1">
          <mxGeometry x="725" y="35.75" width="50" height="28" as="geometry" />
        </mxCell>
        <mxCell id="8Ir0-n3XTpCSbQ5L_XkL-30" value="" style="endArrow=none;html=1;rounded=0;entryX=1;entryY=0;entryDx=0;entryDy=0;exitX=0.25;exitY=1;exitDx=0;exitDy=0;" parent="1" source="8Ir0-n3XTpCSbQ5L_XkL-2" target="8Ir0-n3XTpCSbQ5L_XkL-26" edge="1">
          <mxGeometry width="50" height="50" relative="1" as="geometry">
            <mxPoint x="540" y="116" as="sourcePoint" />
            <mxPoint x="590" y="66" as="targetPoint" />
          </mxGeometry>
        </mxCell>
        <mxCell id="8Ir0-n3XTpCSbQ5L_XkL-31" value="" style="endArrow=none;html=1;rounded=0;entryX=1;entryY=1;entryDx=0;entryDy=0;exitX=0.25;exitY=0;exitDx=0;exitDy=0;" parent="1" source="8Ir0-n3XTpCSbQ5L_XkL-2" target="8Ir0-n3XTpCSbQ5L_XkL-27" edge="1">
          <mxGeometry width="50" height="50" relative="1" as="geometry">
            <mxPoint x="655" y="76" as="sourcePoint" />
            <mxPoint x="645" y="56" as="targetPoint" />
          </mxGeometry>
        </mxCell>
        <mxCell id="8Ir0-n3XTpCSbQ5L_XkL-32" value="" style="endArrow=none;html=1;rounded=0;entryX=0.5;entryY=1;entryDx=0;entryDy=0;exitX=0.5;exitY=0;exitDx=0;exitDy=0;" parent="1" source="8Ir0-n3XTpCSbQ5L_XkL-2" target="8Ir0-n3XTpCSbQ5L_XkL-25" edge="1">
          <mxGeometry width="50" height="50" relative="1" as="geometry">
            <mxPoint x="680" y="76" as="sourcePoint" />
            <mxPoint x="705" y="56" as="targetPoint" />
          </mxGeometry>
        </mxCell>
        <mxCell id="8Ir0-n3XTpCSbQ5L_XkL-33" value="" style="endArrow=none;html=1;rounded=0;entryX=0.5;entryY=1;entryDx=0;entryDy=0;exitX=0.75;exitY=0;exitDx=0;exitDy=0;" parent="1" source="8Ir0-n3XTpCSbQ5L_XkL-2" target="8Ir0-n3XTpCSbQ5L_XkL-28" edge="1">
          <mxGeometry width="50" height="50" relative="1" as="geometry">
            <mxPoint x="705" y="76" as="sourcePoint" />
            <mxPoint x="757" y="55" as="targetPoint" />
          </mxGeometry>
        </mxCell>
        <mxCell id="8Ir0-n3XTpCSbQ5L_XkL-34" value="" style="endArrow=none;html=1;rounded=0;entryX=0;entryY=1;entryDx=0;entryDy=0;exitX=1;exitY=0;exitDx=0;exitDy=0;" parent="1" source="8Ir0-n3XTpCSbQ5L_XkL-2" target="8Ir0-n3XTpCSbQ5L_XkL-29" edge="1">
          <mxGeometry width="50" height="50" relative="1" as="geometry">
            <mxPoint x="730" y="86" as="sourcePoint" />
            <mxPoint x="745" y="87" as="targetPoint" />
          </mxGeometry>
        </mxCell>
        <mxCell id="8Ir0-n3XTpCSbQ5L_XkL-38" value="StartDate" style="ellipse;whiteSpace=wrap;html=1;align=center;" parent="1" vertex="1">
          <mxGeometry x="350" y="3.75" width="60" height="30" as="geometry" />
        </mxCell>
        <mxCell id="8Ir0-n3XTpCSbQ5L_XkL-39" value="EndDate" style="ellipse;whiteSpace=wrap;html=1;align=center;" parent="1" vertex="1">
          <mxGeometry x="300" y="28.5" width="60" height="30" as="geometry" />
        </mxCell>
        <mxCell id="8Ir0-n3XTpCSbQ5L_XkL-40" value="RequestDate" style="ellipse;whiteSpace=wrap;html=1;align=center;" parent="1" vertex="1">
          <mxGeometry x="380" y="-40" width="80" height="30" as="geometry" />
        </mxCell>
        <mxCell id="8Ir0-n3XTpCSbQ5L_XkL-41" value="Status" style="ellipse;whiteSpace=wrap;html=1;align=center;" parent="1" vertex="1">
          <mxGeometry x="430" y="-9" width="50" height="30" as="geometry" />
        </mxCell>
        <mxCell id="8Ir0-n3XTpCSbQ5L_XkL-49" value="" style="endArrow=none;html=1;rounded=0;entryX=0.5;entryY=1;entryDx=0;entryDy=0;exitX=0.5;exitY=0;exitDx=0;exitDy=0;" parent="1" source="46zhh7IYB7a99bxLHI5D-2" target="8Ir0-n3XTpCSbQ5L_XkL-38" edge="1">
          <mxGeometry width="50" height="50" relative="1" as="geometry">
            <mxPoint x="405" y="61.75" as="sourcePoint" />
            <mxPoint x="300" y="523" as="targetPoint" />
          </mxGeometry>
        </mxCell>
        <mxCell id="8Ir0-n3XTpCSbQ5L_XkL-50" value="" style="endArrow=none;html=1;rounded=0;entryX=0.5;entryY=1;entryDx=0;entryDy=0;exitX=0;exitY=0.25;exitDx=0;exitDy=0;" parent="1" source="46zhh7IYB7a99bxLHI5D-2" target="8Ir0-n3XTpCSbQ5L_XkL-39" edge="1">
          <mxGeometry width="50" height="50" relative="1" as="geometry">
            <mxPoint x="377.5" y="73" as="sourcePoint" />
            <mxPoint x="130" y="360" as="targetPoint" />
          </mxGeometry>
        </mxCell>
        <mxCell id="8Ir0-n3XTpCSbQ5L_XkL-51" value="" style="endArrow=none;html=1;rounded=0;entryX=0.5;entryY=1;entryDx=0;entryDy=0;exitX=0.75;exitY=0;exitDx=0;exitDy=0;" parent="1" source="46zhh7IYB7a99bxLHI5D-2" target="8Ir0-n3XTpCSbQ5L_XkL-40" edge="1">
          <mxGeometry width="50" height="50" relative="1" as="geometry">
            <mxPoint x="405" y="61.75" as="sourcePoint" />
            <mxPoint x="198" y="360" as="targetPoint" />
          </mxGeometry>
        </mxCell>
        <mxCell id="8Ir0-n3XTpCSbQ5L_XkL-52" value="" style="endArrow=none;html=1;rounded=0;entryX=0.5;entryY=1;entryDx=0;entryDy=0;exitX=1;exitY=0;exitDx=0;exitDy=0;" parent="1" source="46zhh7IYB7a99bxLHI5D-2" target="8Ir0-n3XTpCSbQ5L_XkL-41" edge="1">
          <mxGeometry width="50" height="50" relative="1" as="geometry">
            <mxPoint x="432.5" y="73" as="sourcePoint" />
            <mxPoint x="455" y="28.5" as="targetPoint" />
          </mxGeometry>
        </mxCell>
        <mxCell id="8Ir0-n3XTpCSbQ5L_XkL-59" value="Admin" style="whiteSpace=wrap;html=1;align=center;" parent="1" vertex="1">
          <mxGeometry x="370" y="244" width="70" height="30" as="geometry" />
        </mxCell>
        <mxCell id="dVXzLSEpgu7YQTHh3wm8-7" value="Supplier" style="whiteSpace=wrap;html=1;align=center;" parent="1" vertex="1">
          <mxGeometry x="935" y="65" width="70" height="30" as="geometry" />
        </mxCell>
        <mxCell id="dVXzLSEpgu7YQTHh3wm8-9" style="endArrow=none;edgeStyle=orthogonalEdgeStyle;rounded=0;orthogonalLoop=1;jettySize=auto;html=1;exitX=1;exitY=0.5;exitDx=0;exitDy=0;entryX=0;entryY=0.5;entryDx=0;entryDy=0;" parent="1" source="dVXzLSEpgu7YQTHh3wm8-8" target="dVXzLSEpgu7YQTHh3wm8-7" edge="1">
          <mxGeometry relative="1" as="geometry" />
        </mxCell>
        <mxCell id="dVXzLSEpgu7YQTHh3wm8-8" value="Supplied" style="shape=rhombus;perimeter=rhombusPerimeter;whiteSpace=wrap;html=1;align=center;" parent="1" vertex="1">
          <mxGeometry x="775" y="57.5" width="110" height="45" as="geometry" />
        </mxCell>
        <mxCell id="dVXzLSEpgu7YQTHh3wm8-12" value="Name" style="ellipse;whiteSpace=wrap;html=1;align=center;" parent="1" vertex="1">
          <mxGeometry x="925" y="8" width="40" height="30" as="geometry" />
        </mxCell>
        <mxCell id="dVXzLSEpgu7YQTHh3wm8-15" value="" style="endArrow=none;html=1;rounded=0;entryX=0.433;entryY=0.967;entryDx=0;entryDy=0;exitX=0.75;exitY=0;exitDx=0;exitDy=0;entryPerimeter=0;" parent="1" source="dVXzLSEpgu7YQTHh3wm8-7" target="dVXzLSEpgu7YQTHh3wm8-32" edge="1">
          <mxGeometry width="50" height="50" relative="1" as="geometry">
            <mxPoint x="1108" y="150.5" as="sourcePoint" />
            <mxPoint x="1005" y="38" as="targetPoint" />
          </mxGeometry>
        </mxCell>
        <mxCell id="dVXzLSEpgu7YQTHh3wm8-16" value="" style="endArrow=none;html=1;rounded=0;entryX=0.5;entryY=1;entryDx=0;entryDy=0;exitX=0.25;exitY=0;exitDx=0;exitDy=0;" parent="1" source="dVXzLSEpgu7YQTHh3wm8-7" target="dVXzLSEpgu7YQTHh3wm8-12" edge="1">
          <mxGeometry width="50" height="50" relative="1" as="geometry">
            <mxPoint x="908" y="46" as="sourcePoint" />
            <mxPoint x="845" y="-12" as="targetPoint" />
          </mxGeometry>
        </mxCell>
        <mxCell id="dVXzLSEpgu7YQTHh3wm8-17" value="M" style="text;html=1;align=center;verticalAlign=middle;whiteSpace=wrap;rounded=0;" parent="1" vertex="1">
          <mxGeometry x="915" y="82.5" width="20" height="20" as="geometry" />
        </mxCell>
        <mxCell id="dVXzLSEpgu7YQTHh3wm8-18" value="M" style="text;html=1;align=center;verticalAlign=middle;whiteSpace=wrap;rounded=0;" parent="1" vertex="1">
          <mxGeometry x="725" y="80.75" width="20" height="20" as="geometry" />
        </mxCell>
        <mxCell id="dVXzLSEpgu7YQTHh3wm8-19" value="TotalQuantity" style="ellipse;whiteSpace=wrap;html=1;align=center;" parent="1" vertex="1">
          <mxGeometry x="660" y="103.5" width="90" height="38" as="geometry" />
        </mxCell>
        <mxCell id="dVXzLSEpgu7YQTHh3wm8-20" value="" style="endArrow=none;html=1;rounded=0;entryX=0.5;entryY=1;entryDx=0;entryDy=0;exitX=0.5;exitY=0;exitDx=0;exitDy=0;" parent="1" source="dVXzLSEpgu7YQTHh3wm8-19" target="8Ir0-n3XTpCSbQ5L_XkL-2" edge="1">
          <mxGeometry width="50" height="50" relative="1" as="geometry">
            <mxPoint x="745" y="144" as="sourcePoint" />
            <mxPoint x="736" y="110" as="targetPoint" />
          </mxGeometry>
        </mxCell>
        <mxCell id="dVXzLSEpgu7YQTHh3wm8-21" value="Quantity" style="ellipse;whiteSpace=wrap;html=1;align=center;" parent="1" vertex="1">
          <mxGeometry x="805" y="-2.25" width="90" height="38" as="geometry" />
        </mxCell>
        <mxCell id="dVXzLSEpgu7YQTHh3wm8-22" value="" style="endArrow=none;html=1;rounded=0;entryX=0.5;entryY=0;entryDx=0;entryDy=0;exitX=0.5;exitY=1;exitDx=0;exitDy=0;" parent="1" source="dVXzLSEpgu7YQTHh3wm8-21" target="dVXzLSEpgu7YQTHh3wm8-8" edge="1">
          <mxGeometry width="50" height="50" relative="1" as="geometry">
            <mxPoint x="920" y="-14.5" as="sourcePoint" />
            <mxPoint x="863" y="-64.5" as="targetPoint" />
          </mxGeometry>
        </mxCell>
        <mxCell id="dVXzLSEpgu7YQTHh3wm8-23" value="Date_supplied" style="ellipse;whiteSpace=wrap;html=1;align=center;" parent="1" vertex="1">
          <mxGeometry x="815" y="116" width="90" height="38" as="geometry" />
        </mxCell>
        <mxCell id="dVXzLSEpgu7YQTHh3wm8-24" value="" style="endArrow=none;html=1;rounded=0;entryX=1;entryY=1;entryDx=0;entryDy=0;exitX=0.5;exitY=0;exitDx=0;exitDy=0;" parent="1" source="dVXzLSEpgu7YQTHh3wm8-23" target="dVXzLSEpgu7YQTHh3wm8-8" edge="1">
          <mxGeometry width="50" height="50" relative="1" as="geometry">
            <mxPoint x="930" y="158.25" as="sourcePoint" />
            <mxPoint x="873" y="108.25" as="targetPoint" />
          </mxGeometry>
        </mxCell>
        <mxCell id="dVXzLSEpgu7YQTHh3wm8-25" value="AdminID" style="ellipse;whiteSpace=wrap;html=1;align=center;fontStyle=4;" parent="1" vertex="1">
          <mxGeometry x="380" y="284" width="50" height="30" as="geometry" />
        </mxCell>
        <mxCell id="dVXzLSEpgu7YQTHh3wm8-26" value="Name" style="ellipse;whiteSpace=wrap;html=1;align=center;" parent="1" vertex="1">
          <mxGeometry x="320" y="264" width="40" height="30" as="geometry" />
        </mxCell>
        <mxCell id="dVXzLSEpgu7YQTHh3wm8-28" value="" style="endArrow=none;html=1;rounded=0;exitX=1;exitY=0;exitDx=0;exitDy=0;entryX=0;entryY=0.5;entryDx=0;entryDy=0;" parent="1" source="dVXzLSEpgu7YQTHh3wm8-26" target="8Ir0-n3XTpCSbQ5L_XkL-59" edge="1">
          <mxGeometry width="50" height="50" relative="1" as="geometry">
            <mxPoint x="505" y="464" as="sourcePoint" />
            <mxPoint x="410" y="385.5" as="targetPoint" />
          </mxGeometry>
        </mxCell>
        <mxCell id="dVXzLSEpgu7YQTHh3wm8-30" value="" style="endArrow=none;html=1;rounded=0;exitX=0.5;exitY=0;exitDx=0;exitDy=0;entryX=0.5;entryY=1;entryDx=0;entryDy=0;" parent="1" source="dVXzLSEpgu7YQTHh3wm8-25" target="8Ir0-n3XTpCSbQ5L_XkL-59" edge="1">
          <mxGeometry width="50" height="50" relative="1" as="geometry">
            <mxPoint x="405" y="374" as="sourcePoint" />
            <mxPoint x="410" y="354.5" as="targetPoint" />
          </mxGeometry>
        </mxCell>
        <mxCell id="dVXzLSEpgu7YQTHh3wm8-32" value="SupplierID" style="ellipse;whiteSpace=wrap;html=1;align=center;fontStyle=4;" parent="1" vertex="1">
          <mxGeometry x="985" y="12.5" width="70" height="40" as="geometry" />
        </mxCell>
        <mxCell id="46zhh7IYB7a99bxLHI5D-2" value="Reservation" style="whiteSpace=wrap;html=1;align=center;" parent="1" vertex="1">
          <mxGeometry x="370" y="58.5" width="70" height="31.5" as="geometry" />
        </mxCell>
        <mxCell id="46zhh7IYB7a99bxLHI5D-3" value="Makes" style="shape=rhombus;perimeter=rhombusPerimeter;whiteSpace=wrap;html=1;align=center;" parent="1" vertex="1">
          <mxGeometry x="190" y="58.5" width="110" height="45" as="geometry" />
        </mxCell>
        <mxCell id="46zhh7IYB7a99bxLHI5D-4" value="Manages" style="shape=rhombus;perimeter=rhombusPerimeter;whiteSpace=wrap;html=1;align=center;" parent="1" vertex="1">
          <mxGeometry x="350" y="154" width="110" height="45" as="geometry" />
        </mxCell>
        <mxCell id="46zhh7IYB7a99bxLHI5D-5" value="Inlcudes" style="shape=rhombus;perimeter=rhombusPerimeter;whiteSpace=wrap;html=1;align=center;" parent="1" vertex="1">
          <mxGeometry x="490" y="55.75" width="110" height="45" as="geometry" />
        </mxCell>
        <mxCell id="46zhh7IYB7a99bxLHI5D-7" value="" style="endArrow=classic;html=1;rounded=0;exitX=0;exitY=0.5;exitDx=0;exitDy=0;entryX=1;entryY=0.5;entryDx=0;entryDy=0;" parent="1" source="46zhh7IYB7a99bxLHI5D-3" target="8Ir0-n3XTpCSbQ5L_XkL-1" edge="1">
          <mxGeometry width="50" height="50" relative="1" as="geometry">
            <mxPoint x="400" y="160" as="sourcePoint" />
            <mxPoint x="450" y="110" as="targetPoint" />
          </mxGeometry>
        </mxCell>
        <mxCell id="46zhh7IYB7a99bxLHI5D-9" value="M" style="text;html=1;align=center;verticalAlign=middle;resizable=0;points=[];autosize=1;strokeColor=none;fillColor=none;" parent="1" vertex="1">
          <mxGeometry x="345" y="78" width="30" height="30" as="geometry" />
        </mxCell>
        <mxCell id="46zhh7IYB7a99bxLHI5D-10" value="1" style="text;html=1;align=center;verticalAlign=middle;resizable=0;points=[];autosize=1;strokeColor=none;fillColor=none;" parent="1" vertex="1">
          <mxGeometry x="140" y="50.75" width="30" height="30" as="geometry" />
        </mxCell>
        <mxCell id="46zhh7IYB7a99bxLHI5D-12" value="" style="endArrow=none;html=1;rounded=0;exitX=1;exitY=0.5;exitDx=0;exitDy=0;entryX=0;entryY=0.5;entryDx=0;entryDy=0;" parent="1" source="46zhh7IYB7a99bxLHI5D-5" target="8Ir0-n3XTpCSbQ5L_XkL-2" edge="1">
          <mxGeometry width="50" height="50" relative="1" as="geometry">
            <mxPoint x="500" y="88" as="sourcePoint" />
            <mxPoint x="450" y="92" as="targetPoint" />
          </mxGeometry>
        </mxCell>
        <mxCell id="46zhh7IYB7a99bxLHI5D-13" value="M" style="text;html=1;align=center;verticalAlign=middle;resizable=0;points=[];autosize=1;strokeColor=none;fillColor=none;" parent="1" vertex="1">
          <mxGeometry x="440" y="75.75" width="30" height="30" as="geometry" />
        </mxCell>
        <mxCell id="46zhh7IYB7a99bxLHI5D-14" value="M" style="text;html=1;align=center;verticalAlign=middle;resizable=0;points=[];autosize=1;strokeColor=none;fillColor=none;" parent="1" vertex="1">
          <mxGeometry x="625" y="77.5" width="30" height="30" as="geometry" />
        </mxCell>
        <mxCell id="46zhh7IYB7a99bxLHI5D-15" value="" style="endArrow=classic;html=1;rounded=0;exitX=0.5;exitY=1;exitDx=0;exitDy=0;entryX=0.5;entryY=0;entryDx=0;entryDy=0;" parent="1" source="46zhh7IYB7a99bxLHI5D-4" target="8Ir0-n3XTpCSbQ5L_XkL-59" edge="1">
          <mxGeometry width="50" height="50" relative="1" as="geometry">
            <mxPoint x="200" y="91" as="sourcePoint" />
            <mxPoint x="150" y="84" as="targetPoint" />
          </mxGeometry>
        </mxCell>
        <mxCell id="46zhh7IYB7a99bxLHI5D-17" value="M" style="text;html=1;align=center;verticalAlign=middle;resizable=0;points=[];autosize=1;strokeColor=none;fillColor=none;" parent="1" vertex="1">
          <mxGeometry x="405" y="88.5" width="30" height="30" as="geometry" />
        </mxCell>
        <mxCell id="46zhh7IYB7a99bxLHI5D-18" value="1" style="text;html=1;align=center;verticalAlign=middle;resizable=0;points=[];autosize=1;strokeColor=none;fillColor=none;" parent="1" vertex="1">
          <mxGeometry x="375" y="214" width="30" height="30" as="geometry" />
        </mxCell>
        <mxCell id="46zhh7IYB7a99bxLHI5D-19" value="ReservedQuantity" style="ellipse;whiteSpace=wrap;html=1;align=center;" parent="1" vertex="1">
          <mxGeometry x="480" y="130.5" width="100" height="39.5" as="geometry" />
        </mxCell>
        <mxCell id="46zhh7IYB7a99bxLHI5D-20" value="" style="endArrow=none;html=1;rounded=0;entryX=0.5;entryY=0;entryDx=0;entryDy=0;exitX=0.5;exitY=1;exitDx=0;exitDy=0;" parent="1" source="46zhh7IYB7a99bxLHI5D-5" target="46zhh7IYB7a99bxLHI5D-19" edge="1">
          <mxGeometry width="50" height="50" relative="1" as="geometry">
            <mxPoint x="681" y="104" as="sourcePoint" />
            <mxPoint x="650" y="156" as="targetPoint" />
          </mxGeometry>
        </mxCell>
        <mxCell id="46zhh7IYB7a99bxLHI5D-21" value="Decision&lt;span style=&quot;color: rgba(0, 0, 0, 0); font-family: monospace; font-size: 0px; text-align: start; text-wrap-mode: nowrap;&quot;&gt;%3CmxGraphModel%3E%3Croot%3E%3CmxCell%20id%3D%220%22%2F%3E%3CmxCell%20id%3D%221%22%20parent%3D%220%22%2F%3E%3CmxCell%20id%3D%222%22%20value%3D%22ReserveQuantity%22%20style%3D%22ellipse%3BwhiteSpace%3Dwrap%3Bhtml%3D1%3Balign%3Dcenter%3B%22%20vertex%3D%221%22%20parent%3D%221%22%3E%3CmxGeometry%20x%3D%22480%22%20y%3D%22130.5%22%20width%3D%22100%22%20height%3D%2239.5%22%20as%3D%22geometry%22%2F%3E%3C%2FmxCell%3E%3C%2Froot%3E%3C%2FmxGraphModel%3E&lt;/span&gt;" style="ellipse;whiteSpace=wrap;html=1;align=center;" parent="1" vertex="1">
          <mxGeometry x="265" y="188.5" width="65" height="25.5" as="geometry" />
        </mxCell>
        <mxCell id="46zhh7IYB7a99bxLHI5D-22" value="ApprovalDate" style="ellipse;whiteSpace=wrap;html=1;align=center;" parent="1" vertex="1">
          <mxGeometry x="250" y="140" width="80" height="30" as="geometry" />
        </mxCell>
        <mxCell id="46zhh7IYB7a99bxLHI5D-23" value="" style="endArrow=none;html=1;rounded=0;exitX=1;exitY=0.5;exitDx=0;exitDy=0;entryX=0;entryY=1;entryDx=0;entryDy=0;" parent="1" source="46zhh7IYB7a99bxLHI5D-21" target="46zhh7IYB7a99bxLHI5D-4" edge="1">
          <mxGeometry width="50" height="50" relative="1" as="geometry">
            <mxPoint x="364" y="278" as="sourcePoint" />
            <mxPoint x="380" y="269" as="targetPoint" />
          </mxGeometry>
        </mxCell>
        <mxCell id="46zhh7IYB7a99bxLHI5D-24" value="" style="endArrow=none;html=1;rounded=0;exitX=1;exitY=0.5;exitDx=0;exitDy=0;entryX=0;entryY=0;entryDx=0;entryDy=0;" parent="1" source="46zhh7IYB7a99bxLHI5D-22" target="46zhh7IYB7a99bxLHI5D-4" edge="1">
          <mxGeometry width="50" height="50" relative="1" as="geometry">
            <mxPoint x="340" y="211" as="sourcePoint" />
            <mxPoint x="360" y="187" as="targetPoint" />
          </mxGeometry>
        </mxCell>
        <mxCell id="46zhh7IYB7a99bxLHI5D-25" value="Notification" style="whiteSpace=wrap;html=1;align=center;" parent="1" vertex="1">
          <mxGeometry x="70" y="232.5" width="70" height="31.5" as="geometry" />
        </mxCell>
        <mxCell id="46zhh7IYB7a99bxLHI5D-26" value="Receives" style="shape=rhombus;perimeter=rhombusPerimeter;whiteSpace=wrap;html=1;align=center;" parent="1" vertex="1">
          <mxGeometry x="50" y="143.5" width="110" height="45" as="geometry" />
        </mxCell>
        <mxCell id="46zhh7IYB7a99bxLHI5D-27" value="NotificationID" style="ellipse;whiteSpace=wrap;html=1;align=center;" parent="1" vertex="1">
          <mxGeometry x="30" y="294" width="80" height="30" as="geometry" />
        </mxCell>
        <mxCell id="46zhh7IYB7a99bxLHI5D-28" value="UserID" style="ellipse;whiteSpace=wrap;html=1;align=center;" parent="1" vertex="1">
          <mxGeometry x="140" y="274" width="65" height="26" as="geometry" />
        </mxCell>
        <mxCell id="46zhh7IYB7a99bxLHI5D-29" value="Message" style="ellipse;whiteSpace=wrap;html=1;align=center;" parent="1" vertex="1">
          <mxGeometry x="5" y="258" width="65" height="26" as="geometry" />
        </mxCell>
        <mxCell id="46zhh7IYB7a99bxLHI5D-30" value="TimeStamp" style="ellipse;whiteSpace=wrap;html=1;align=center;" parent="1" vertex="1">
          <mxGeometry x="115" y="314" width="65" height="26" as="geometry" />
        </mxCell>
        <mxCell id="46zhh7IYB7a99bxLHI5D-31" value="" style="endArrow=none;html=1;rounded=0;exitX=0;exitY=0;exitDx=0;exitDy=0;entryX=1;entryY=1;entryDx=0;entryDy=0;" parent="1" source="46zhh7IYB7a99bxLHI5D-28" target="46zhh7IYB7a99bxLHI5D-25" edge="1">
          <mxGeometry width="50" height="50" relative="1" as="geometry">
            <mxPoint x="340" y="211" as="sourcePoint" />
            <mxPoint x="388" y="198" as="targetPoint" />
          </mxGeometry>
        </mxCell>
        <mxCell id="46zhh7IYB7a99bxLHI5D-32" value="" style="endArrow=none;html=1;rounded=0;exitX=0;exitY=0;exitDx=0;exitDy=0;entryX=0.75;entryY=1;entryDx=0;entryDy=0;" parent="1" source="46zhh7IYB7a99bxLHI5D-30" target="46zhh7IYB7a99bxLHI5D-25" edge="1">
          <mxGeometry width="50" height="50" relative="1" as="geometry">
            <mxPoint x="159" y="288" as="sourcePoint" />
            <mxPoint x="150" y="274" as="targetPoint" />
          </mxGeometry>
        </mxCell>
        <mxCell id="46zhh7IYB7a99bxLHI5D-33" value="" style="endArrow=none;html=1;rounded=0;exitX=1;exitY=0;exitDx=0;exitDy=0;entryX=0.5;entryY=1;entryDx=0;entryDy=0;" parent="1" source="46zhh7IYB7a99bxLHI5D-27" target="46zhh7IYB7a99bxLHI5D-25" edge="1">
          <mxGeometry width="50" height="50" relative="1" as="geometry">
            <mxPoint x="134" y="328" as="sourcePoint" />
            <mxPoint x="133" y="274" as="targetPoint" />
          </mxGeometry>
        </mxCell>
        <mxCell id="46zhh7IYB7a99bxLHI5D-34" value="" style="endArrow=none;html=1;rounded=0;exitX=1;exitY=0;exitDx=0;exitDy=0;entryX=0;entryY=0.75;entryDx=0;entryDy=0;" parent="1" source="46zhh7IYB7a99bxLHI5D-29" target="46zhh7IYB7a99bxLHI5D-25" edge="1">
          <mxGeometry width="50" height="50" relative="1" as="geometry">
            <mxPoint x="108" y="308" as="sourcePoint" />
            <mxPoint x="115" y="274" as="targetPoint" />
          </mxGeometry>
        </mxCell>
        <mxCell id="46zhh7IYB7a99bxLHI5D-35" value="UsageLog" style="whiteSpace=wrap;html=1;align=center;" parent="1" vertex="1">
          <mxGeometry x="372.5" y="-140" width="65" height="31.5" as="geometry" />
        </mxCell>
        <mxCell id="46zhh7IYB7a99bxLHI5D-36" value="Records" style="shape=rhombus;perimeter=rhombusPerimeter;whiteSpace=wrap;html=1;align=center;" parent="1" vertex="1">
          <mxGeometry x="170" y="-100" width="110" height="45" as="geometry" />
        </mxCell>
        <mxCell id="46zhh7IYB7a99bxLHI5D-37" value="Tracked" style="shape=rhombus;perimeter=rhombusPerimeter;whiteSpace=wrap;html=1;align=center;" parent="1" vertex="1">
          <mxGeometry x="475" y="-70.5" width="110" height="45" as="geometry" />
        </mxCell>
        <mxCell id="46zhh7IYB7a99bxLHI5D-39" value="" style="endArrow=none;html=1;rounded=0;entryX=1;entryY=1;entryDx=0;entryDy=0;" parent="1" target="46zhh7IYB7a99bxLHI5D-37" edge="1">
          <mxGeometry width="50" height="50" relative="1" as="geometry">
            <mxPoint x="570" y="30" as="sourcePoint" />
            <mxPoint x="580" y="40" as="targetPoint" />
          </mxGeometry>
        </mxCell>
        <mxCell id="46zhh7IYB7a99bxLHI5D-43" value="UserID" style="ellipse;whiteSpace=wrap;html=1;align=center;" parent="1" vertex="1">
          <mxGeometry x="315" y="-210" width="60" height="30" as="geometry" />
        </mxCell>
        <mxCell id="46zhh7IYB7a99bxLHI5D-44" value="EquipmentID" style="ellipse;whiteSpace=wrap;html=1;align=center;" parent="1" vertex="1">
          <mxGeometry x="385" y="-190" width="80" height="30" as="geometry" />
        </mxCell>
        <mxCell id="46zhh7IYB7a99bxLHI5D-45" value="UsageDate" style="ellipse;whiteSpace=wrap;html=1;align=center;" parent="1" vertex="1">
          <mxGeometry x="460" y="-170" width="80" height="30" as="geometry" />
        </mxCell>
        <mxCell id="46zhh7IYB7a99bxLHI5D-46" value="LogID" style="ellipse;whiteSpace=wrap;html=1;align=center;" parent="1" vertex="1">
          <mxGeometry x="257.5" y="-170" width="80" height="30" as="geometry" />
        </mxCell>
        <mxCell id="46zhh7IYB7a99bxLHI5D-47" value="" style="endArrow=none;html=1;rounded=0;entryX=0;entryY=0.25;entryDx=0;entryDy=0;exitX=1;exitY=1;exitDx=0;exitDy=0;" parent="1" source="46zhh7IYB7a99bxLHI5D-46" target="46zhh7IYB7a99bxLHI5D-35" edge="1">
          <mxGeometry width="50" height="50" relative="1" as="geometry">
            <mxPoint x="263" y="-79" as="sourcePoint" />
            <mxPoint x="383" y="-114" as="targetPoint" />
          </mxGeometry>
        </mxCell>
        <mxCell id="46zhh7IYB7a99bxLHI5D-49" value="" style="endArrow=none;html=1;rounded=0;entryX=0.25;entryY=0;entryDx=0;entryDy=0;exitX=0.5;exitY=1;exitDx=0;exitDy=0;" parent="1" source="46zhh7IYB7a99bxLHI5D-43" target="46zhh7IYB7a99bxLHI5D-35" edge="1">
          <mxGeometry width="50" height="50" relative="1" as="geometry">
            <mxPoint x="336" y="-134" as="sourcePoint" />
            <mxPoint x="383" y="-122" as="targetPoint" />
          </mxGeometry>
        </mxCell>
        <mxCell id="46zhh7IYB7a99bxLHI5D-50" value="" style="endArrow=none;html=1;rounded=0;entryX=0.75;entryY=0;entryDx=0;entryDy=0;exitX=0.5;exitY=1;exitDx=0;exitDy=0;" parent="1" source="46zhh7IYB7a99bxLHI5D-44" target="46zhh7IYB7a99bxLHI5D-35" edge="1">
          <mxGeometry width="50" height="50" relative="1" as="geometry">
            <mxPoint x="355" y="-170" as="sourcePoint" />
            <mxPoint x="399" y="-130" as="targetPoint" />
          </mxGeometry>
        </mxCell>
        <mxCell id="46zhh7IYB7a99bxLHI5D-51" value="" style="endArrow=none;html=1;rounded=0;entryX=1;entryY=0;entryDx=0;entryDy=0;exitX=0;exitY=1;exitDx=0;exitDy=0;" parent="1" source="46zhh7IYB7a99bxLHI5D-45" target="46zhh7IYB7a99bxLHI5D-35" edge="1">
          <mxGeometry width="50" height="50" relative="1" as="geometry">
            <mxPoint x="435" y="-150" as="sourcePoint" />
            <mxPoint x="431" y="-130" as="targetPoint" />
          </mxGeometry>
        </mxCell>
        <mxCell id="46zhh7IYB7a99bxLHI5D-52" value="" style="endArrow=classic;html=1;rounded=0;exitX=0;exitY=1;exitDx=0;exitDy=0;entryX=1;entryY=0;entryDx=0;entryDy=0;" parent="1" source="46zhh7IYB7a99bxLHI5D-36" target="8Ir0-n3XTpCSbQ5L_XkL-1" edge="1">
          <mxGeometry width="50" height="50" relative="1" as="geometry">
            <mxPoint x="200" y="91" as="sourcePoint" />
            <mxPoint x="150" y="84" as="targetPoint" />
          </mxGeometry>
        </mxCell>
        <mxCell id="46zhh7IYB7a99bxLHI5D-53" value="1" style="text;html=1;align=center;verticalAlign=middle;resizable=0;points=[];autosize=1;strokeColor=none;fillColor=none;" parent="1" vertex="1">
          <mxGeometry x="140" y="28.5" width="30" height="30" as="geometry" />
        </mxCell>
        <mxCell id="46zhh7IYB7a99bxLHI5D-54" value="M" style="text;html=1;align=center;verticalAlign=middle;resizable=0;points=[];autosize=1;strokeColor=none;fillColor=none;" parent="1" vertex="1">
          <mxGeometry x="345" y="-120" width="30" height="30" as="geometry" />
        </mxCell>
        <mxCell id="46zhh7IYB7a99bxLHI5D-55" value="M" style="text;html=1;align=center;verticalAlign=middle;resizable=0;points=[];autosize=1;strokeColor=none;fillColor=none;" parent="1" vertex="1">
          <mxGeometry x="425" y="-108.5" width="30" height="30" as="geometry" />
        </mxCell>
        <mxCell id="46zhh7IYB7a99bxLHI5D-56" value="" style="endArrow=classic;html=1;rounded=0;entryX=0;entryY=0;entryDx=0;entryDy=0;" parent="1" target="8Ir0-n3XTpCSbQ5L_XkL-2" edge="1">
          <mxGeometry width="50" height="50" relative="1" as="geometry">
            <mxPoint x="570" y="30" as="sourcePoint" />
            <mxPoint x="150" y="68" as="targetPoint" />
          </mxGeometry>
        </mxCell>
        <mxCell id="46zhh7IYB7a99bxLHI5D-57" value="1" style="text;html=1;align=center;verticalAlign=middle;resizable=0;points=[];autosize=1;strokeColor=none;fillColor=none;" parent="1" vertex="1">
          <mxGeometry x="620" y="52.5" width="30" height="30" as="geometry" />
        </mxCell>
        <mxCell id="46zhh7IYB7a99bxLHI5D-58" value="" style="endArrow=classic;html=1;rounded=0;entryX=0.5;entryY=1;entryDx=0;entryDy=0;exitX=0.5;exitY=0;exitDx=0;exitDy=0;" parent="1" source="46zhh7IYB7a99bxLHI5D-26" target="8Ir0-n3XTpCSbQ5L_XkL-1" edge="1">
          <mxGeometry width="50" height="50" relative="1" as="geometry">
            <mxPoint x="210" y="143.5" as="sourcePoint" />
            <mxPoint x="150" y="251.5" as="targetPoint" />
          </mxGeometry>
        </mxCell>
        <mxCell id="46zhh7IYB7a99bxLHI5D-59" value="1" style="text;html=1;align=center;verticalAlign=middle;resizable=0;points=[];autosize=1;strokeColor=none;fillColor=none;" parent="1" vertex="1">
          <mxGeometry x="110" y="88.5" width="30" height="30" as="geometry" />
        </mxCell>
        <mxCell id="46zhh7IYB7a99bxLHI5D-60" value="" style="shape=line;endArrow=none;html=1;rounded=0;exitX=0.5;exitY=0;exitDx=0;exitDy=0;entryX=0.5;entryY=1;entryDx=0;entryDy=0;" parent="1" source="46zhh7IYB7a99bxLHI5D-25" target="46zhh7IYB7a99bxLHI5D-26" edge="1">
          <mxGeometry width="50" height="50" relative="1" as="geometry">
            <mxPoint x="134" y="328" as="sourcePoint" />
            <mxPoint x="133" y="274" as="targetPoint" />
          </mxGeometry>
        </mxCell>
        <mxCell id="dvCjDZwtxdC1vcq6CaRi-1" value="" style="shape=link;html=1;rounded=0;exitX=0.5;exitY=1;exitDx=0;exitDy=0;entryX=0.5;entryY=0;entryDx=0;entryDy=0;" edge="1" parent="1" source="46zhh7IYB7a99bxLHI5D-26" target="46zhh7IYB7a99bxLHI5D-25">
          <mxGeometry relative="1" as="geometry">
            <mxPoint x="310" y="480" as="sourcePoint" />
            <mxPoint x="470" y="480" as="targetPoint" />
          </mxGeometry>
        </mxCell>
        <mxCell id="dvCjDZwtxdC1vcq6CaRi-2" value="M" style="resizable=0;html=1;whiteSpace=wrap;align=right;verticalAlign=bottom;" connectable="0" vertex="1" parent="dvCjDZwtxdC1vcq6CaRi-1">
          <mxGeometry x="1" relative="1" as="geometry">
            <mxPoint x="-5" as="offset" />
          </mxGeometry>
        </mxCell>
        <mxCell id="dvCjDZwtxdC1vcq6CaRi-3" value="" style="shape=link;html=1;rounded=0;exitX=1;exitY=0.5;exitDx=0;exitDy=0;entryX=0;entryY=0.5;entryDx=0;entryDy=0;" edge="1" parent="1" source="8Ir0-n3XTpCSbQ5L_XkL-2" target="dVXzLSEpgu7YQTHh3wm8-8">
          <mxGeometry relative="1" as="geometry">
            <mxPoint x="800" y="230" as="sourcePoint" />
            <mxPoint x="960" y="230" as="targetPoint" />
          </mxGeometry>
        </mxCell>
        <mxCell id="dvCjDZwtxdC1vcq6CaRi-5" value="" style="shape=link;html=1;rounded=0;exitX=1;exitY=0.5;exitDx=0;exitDy=0;entryX=0;entryY=0.5;entryDx=0;entryDy=0;" edge="1" parent="1" source="46zhh7IYB7a99bxLHI5D-3" target="46zhh7IYB7a99bxLHI5D-2">
          <mxGeometry relative="1" as="geometry">
            <mxPoint x="760" y="300" as="sourcePoint" />
            <mxPoint x="920" y="300" as="targetPoint" />
          </mxGeometry>
        </mxCell>
        <mxCell id="dvCjDZwtxdC1vcq6CaRi-6" value="" style="shape=link;html=1;rounded=0;exitX=1;exitY=1;exitDx=0;exitDy=0;entryX=0;entryY=0;entryDx=0;entryDy=0;" edge="1" parent="1" source="46zhh7IYB7a99bxLHI5D-35" target="46zhh7IYB7a99bxLHI5D-37">
          <mxGeometry relative="1" as="geometry">
            <mxPoint x="570" y="-120.69" as="sourcePoint" />
            <mxPoint x="730" y="-120.69" as="targetPoint" />
          </mxGeometry>
        </mxCell>
        <mxCell id="dvCjDZwtxdC1vcq6CaRi-7" value="" style="shape=link;html=1;rounded=0;exitX=1;exitY=0.5;exitDx=0;exitDy=0;entryX=0;entryY=0.5;entryDx=0;entryDy=0;" edge="1" parent="1" source="46zhh7IYB7a99bxLHI5D-2" target="46zhh7IYB7a99bxLHI5D-5">
          <mxGeometry relative="1" as="geometry">
            <mxPoint x="980" y="300" as="sourcePoint" />
            <mxPoint x="1140" y="300" as="targetPoint" />
          </mxGeometry>
        </mxCell>
        <mxCell id="dvCjDZwtxdC1vcq6CaRi-8" value="" style="shape=link;html=1;rounded=0;entryX=0;entryY=0.5;entryDx=0;entryDy=0;exitX=1;exitY=0.5;exitDx=0;exitDy=0;" edge="1" parent="1" source="46zhh7IYB7a99bxLHI5D-36" target="46zhh7IYB7a99bxLHI5D-35">
          <mxGeometry relative="1" as="geometry">
            <mxPoint x="25" y="-160.69" as="sourcePoint" />
            <mxPoint x="185" y="-160.69" as="targetPoint" />
          </mxGeometry>
        </mxCell>
        <mxCell id="dvCjDZwtxdC1vcq6CaRi-9" value="" style="shape=link;html=1;rounded=0;exitX=0.5;exitY=1;exitDx=0;exitDy=0;entryX=0.5;entryY=0;entryDx=0;entryDy=0;" edge="1" parent="1" source="46zhh7IYB7a99bxLHI5D-2" target="46zhh7IYB7a99bxLHI5D-4">
          <mxGeometry relative="1" as="geometry">
            <mxPoint x="750" y="310" as="sourcePoint" />
            <mxPoint x="910" y="310" as="targetPoint" />
          </mxGeometry>
        </mxCell>
      </root>
    </mxGraphModel>
  </diagram>
</mxfile>
